<svg width="141" height="142" viewBox="0 0 141 142" fill="none" xmlns="http://www.w3.org/2000/svg">
<path fill-rule="evenodd" clip-rule="evenodd" d="M72.6405 8.43177C86.6444 4.12698 101.724 -3.69927 115.217 2.01134C128.826 7.77122 138.095 22.6663 140.689 37.2314C143.135 50.9721 130.421 62.5666 128.459 76.385C126.492 90.2377 136.449 105.485 129.292 117.502C122.096 129.584 106.128 132.616 92.6349 136.533C79.1816 140.439 64.8941 144.514 51.6142 140.053C38.5081 135.649 29.9432 123.674 21.5714 112.659C13.6533 102.241 7.47446 90.9139 4.56767 78.1493C1.46917 64.5428 -3.84024 48.4064 4.37189 37.1305C12.7658 25.605 30.9607 29.3959 44.0959 23.874C54.2737 19.5955 62.0883 11.6756 72.6405 8.43177Z" fill="url(#paint0_linear)"/>
<defs>
<linearGradient id="paint0_linear" x1="30.0879" y1="120.7" x2="122.732" y2="9.73014" gradientUnits="userSpaceOnUse">
<stop stop-color="#79ADDC"/>
<stop offset="1" stop-color="#ADF7B6"/>
</linearGradient>
</defs>
</svg>
