<svg width="267" height="226" viewBox="0 0 267 226" fill="none" xmlns="http://www.w3.org/2000/svg">
<path fill-rule="evenodd" clip-rule="evenodd" d="M132.489 26.1862C153.627 30.3558 175.261 24.8489 195.163 33.1021C219.741 43.294 246.691 54.577 258.479 78.4317C270.846 103.46 268.954 134.482 257.932 160.131C247.4 184.64 224.253 200.786 200.6 213.121C179.623 224.061 156.081 227.309 132.489 225.55C110.349 223.9 91.3507 213.178 71.3761 203.488C46.3641 191.354 9.98115 188.409 1.41306 161.961C-7.1563 135.509 25.7209 113.906 33.7286 87.2794C42.0346 59.661 24.3197 19.4122 48.8459 4.2403C73.9746 -11.3044 103.5 20.4679 132.489 26.1862Z" fill="url(#paint0_linear)"/>
<defs>
<linearGradient id="paint0_linear" x1="204.5" y1="37.5" x2="43.5" y2="175.5" gradientUnits="userSpaceOnUse">
<stop stop-color="#FFCB9A"/>
<stop offset="1" stop-color="#FFA3A5"/>
</linearGradient>
</defs>
</svg>
